Crispy Extended Thin.ufo
<glyph name="exclam" format="2">
  <advance width="285"/>
  <unicode hex="0021"/>
  <outline>
    <contour>
      <point x="93" y="46" type="line" identifier="1m237t4hyw"/>
      <point x="105" y="46" type="line" identifier="S4rO5KuHiL"/>
      <point x="107" y="85" type="line"/>
      <point x="107" y="1600" type="line" identifier="zfocDyDTCM"/>
      <point x="95" y="1600" type="line" identifier="v7N4yg5XNk"/>
      <point x="93" y="1582" type="line"/>
    </contour>
    <component base="period" xOffset="63"/>
  </outline>
</glyph>
<glyph name="comma" format="2">
  <advance width="617"/>
  <unicode hex="002C"/>
  <outline>
    <contour>
      <point x="199" y="-456" type="line"/>
      <point x="203" y="0" type="line"/>
      <point x="203" y="14" type="line"/>
      <point x="192" y="14" type="line"/>
      <point x="191" y="8" type="line"/>
      <point x="191" y="0" type="line"/>
      <point x="196" y="0" type="line"/>
      <point x="196" y="-456" type="line"/>
    </contour>
  </outline>
</glyph>
<glyph name="period" format="2">
  <advance width="400"/>
  <unicode hex="002E"/>
  <outline>
    <contour>
      <point x="108" y="0" type="line" identifier="1m237t4hyw"/>
      <point x="110" y="7" type="line" identifier="v7N4yg5XNk"/>
      <point x="110" y="19" type="line"/>
      <point x="92" y="19" type="line" identifier="zfocDyDTCM"/>
      <point x="90" y="13" type="line"/>
      <point x="90" y="0" type="line" identifier="S4rO5KuHiL"/>
    </contour>
  </outline>
</glyph>
<glyph name="three" format="2">
  <advance width="2994"/>
  <unicode hex="0033"/>
  <outline>
    <contour>
      <point x="290" y="0" type="line" identifier="O9abUc1nmN"/>
      <point x="2704" y="0" type="line" identifier="kMJYMTfXCq"/>
      <point x="2704" y="808" type="line" identifier="su2XmdS8e8"/>
      <point x="2470" y="808" type="line" identifier="JQaOzDQqlF"/>
      <point x="2470" y="1600" type="line" identifier="xg8x2Ki40p"/>
      <point x="344" y="1600" type="line" identifier="pE1XSRiy68"/>
      <point x="344" y="1103" type="line" identifier="5lNstGRcSF"/>
      <point x="357" y="1103" type="line" identifier="AcE5xKDZfE"/>
      <point x="357" y="1588" type="line" identifier="7ogBYufWpl"/>
      <point x="2458" y="1588" type="line" identifier="RHLvSX2Jv6"/>
      <point x="2458" y="808" type="line" identifier="iic1IBkDqp"/>
      <point x="769" y="808" type="line" identifier="lRLJEhXMlO"/>
      <point x="769" y="797" type="line" identifier="8aKgEELrVU"/>
      <point x="2691" y="797" type="line" identifier="Dm8zjmbhNr"/>
      <point x="2691" y="12" type="line" identifier="xv9CFHiFgB"/>
      <point x="302" y="12" type="line" identifier="YajKQV3MHP"/>
      <point x="302" y="461" type="line" identifier="36SchVkwze"/>
      <point x="290" y="461" type="line" identifier="tVui9PiOjA"/>
    </contour>
  </outline>
</glyph>
<glyph name="four" format="2">
  <advance width="3235"/>
  <unicode hex="0034"/>
  <outline>
    <contour>
      <point x="2544" y="0" type="line"/>
      <point x="2557" y="0" type="line"/>
      <point x="2557" y="798" type="line"/>
      <point x="2822" y="798" type="line"/>
      <point x="2822" y="810" type="line"/>
      <point x="2557" y="810" type="line"/>
      <point x="2557" y="1600" type="line"/>
      <point x="2544" y="1600" type="line"/>
      <point x="2544" y="810" type="line"/>
      <point x="426" y="810" type="line"/>
      <point x="426" y="1041" type="line"/>
      <point x="426" y="1650" type="line"/>
      <point x="414" y="1650" type="line"/>
      <point x="414" y="1040" type="line"/>
      <point x="414" y="798" type="line"/>
      <point x="2544" y="798" type="line"/>
    </contour>
  </outline>
</glyph>
<glyph name="six" format="2">
  <advance width="3241"/>
  <unicode hex="0036"/>
  <outline>
    <contour>
      <point x="414" y="0" type="line" identifier="uiw6aBUf4P"/>
      <point x="2827" y="0" type="line" identifier="jtYkxiUX6G"/>
      <point x="2827" y="806" type="line" identifier="2G5L37c87I"/>
      <point x="426" y="806" type="line"/>
      <point x="426" y="1310" type="line"/>
      <point x="755" y="1588" type="line"/>
      <point x="2814" y="1588" type="line"/>
      <point x="2814" y="1106" type="line"/>
      <point x="2826" y="1106" type="line" identifier="Wuidbv6mUe"/>
      <point x="2826" y="1600" type="line" identifier="oGvEEuxnYv"/>
      <point x="748" y="1600" type="line" identifier="xR3pEHbMJx"/>
      <point x="414" y="1314" type="line" identifier="KnMArb0tv8"/>
    </contour>
    <contour>
      <point x="2814" y="794" type="line"/>
      <point x="2814" y="12" type="line"/>
      <point x="426" y="12" type="line"/>
      <point x="426" y="794" type="line"/>
    </contour>
  </outline>
</glyph>
<glyph name="eight" format="2">
  <advance width="3007"/>
  <unicode hex="0038"/>
  <outline>
    <contour>
      <point x="2447" y="794" type="line"/>
      <point x="2704" y="596" type="line"/>
      <point x="2704" y="12" type="line"/>
      <point x="302" y="12" type="line"/>
      <point x="302" y="596" type="line"/>
      <point x="560" y="794" type="line"/>
    </contour>
    <contour>
      <point x="2460" y="799" type="line"/>
      <point x="2460" y="801" type="line"/>
      <point x="2714" y="989" type="line"/>
      <point x="2714" y="1600" type="line"/>
      <point x="293" y="1600" type="line"/>
      <point x="293" y="989" type="line"/>
      <point x="546" y="801" type="line"/>
      <point x="546" y="799" type="line"/>
      <point x="290" y="601" type="line"/>
      <point x="290" y="0" type="line"/>
      <point x="2717" y="0" type="line"/>
      <point x="2717" y="601" type="line"/>
    </contour>
    <contour>
      <point x="560" y="806" type="line"/>
      <point x="305" y="994" type="line"/>
      <point x="305" y="1588" type="line"/>
      <point x="2701" y="1588" type="line"/>
      <point x="2701" y="994" type="line"/>
      <point x="2447" y="806" type="line"/>
    </contour>
  </outline>
</glyph>
<glyph name="nine" format="2">
  <advance width="2993"/>
  <unicode hex="0039"/>
  <outline>
    <contour>
      <point x="2703" y="1600" type="line" identifier="uiw6aBUf4P"/>
      <point x="290" y="1600" type="line" identifier="jtYkxiUX6G"/>
      <point x="290" y="795" type="line" identifier="2G5L37c87I"/>
      <point x="2691" y="795" type="line"/>
      <point x="2691" y="12" type="line"/>
      <point x="303" y="12" type="line"/>
      <point x="303" y="348" type="line"/>
      <point x="290" y="348" type="line" identifier="Wuidbv6mUe"/>
      <point x="290" y="0" type="line" identifier="oGvEEuxnYv"/>
      <point x="2703" y="0" type="line" identifier="xR3pEHbMJx"/>
    </contour>
    <contour>
      <point x="302" y="806" type="line"/>
      <point x="302" y="1588" type="line"/>
      <point x="2691" y="1588" type="line"/>
      <point x="2691" y="806" type="line"/>
    </contour>
  </outline>
</glyph>
<glyph name="A" format="2">
  <advance width="3060"/>
  <unicode hex="0041"/>
  <outline>
    <contour>
      <point x="290" y="0" type="line" smooth="yes" identifier="jFq8ta4UUc"/>
      <point x="302" y="0" type="line" smooth="yes" identifier="dQz4RxYhG4"/>
      <point x="302" y="791" type="line" smooth="yes" identifier="viYRWe5UN7"/>
      <point x="2660" y="791" type="line" smooth="yes" identifier="QVexAlbAcl"/>
      <point x="2660" y="0" type="line" smooth="yes" identifier="ZgsCdxNJRW"/>
      <point x="2672" y="0" type="line" smooth="yes" identifier="kpn4Kw9J0C"/>
      <point x="2672" y="1600" type="line" smooth="yes" identifier="OBZ5Ayed7M"/>
      <point x="621" y="1600" type="line" smooth="yes" identifier="iDT0uyhKrn"/>
      <point x="290" y="1222" type="line" smooth="yes" identifier="dqVr87m3uJ"/>
    </contour>
    <contour>
      <point x="302" y="804" type="line" smooth="yes" identifier="IIRC9Wy7kQ"/>
      <point x="302" y="1218" type="line" smooth="yes" identifier="VufvPdJ075"/>
      <point x="627" y="1588" type="line" smooth="yes" identifier="FsYtJ2vFnp"/>
      <point x="2660" y="1588" type="line" smooth="yes" identifier="tUsW8L7b0y"/>
      <point x="2660" y="804" type="line" smooth="yes" identifier="eTe9B4y76W"/>
    </contour>
  </outline>
</glyph>
<glyph name="B" format="2">
  <advance width="3334"/>
  <unicode hex="0042"/>
  <outline>
    <contour>
      <point x="511" y="0" type="line" identifier="hvY9r8RmLr"/>
      <point x="2590" y="0" type="line" identifier="9QFpw7nfq7"/>
      <point x="2921" y="373" type="line"/>
      <point x="2921" y="806" type="line" identifier="543PerILpr"/>
      <point x="2459" y="806" type="line" identifier="zhomauHW30"/>
      <point x="2678" y="1036" type="line"/>
      <point x="2678" y="1600" type="line" identifier="FaP204GrdB"/>
      <point x="511" y="1600" type="line" identifier="JEev70GAj6"/>
    </contour>
    <contour>
      <point x="524" y="12" type="line" identifier="jaMSiLrCua"/>
      <point x="524" y="794" type="line" identifier="XSrxNd2axx"/>
      <point x="2908" y="794" type="line" identifier="lsRGatjQja"/>
      <point x="2908" y="377" type="line"/>
      <point x="2583" y="12" type="line" identifier="xhlDJ3CjD5"/>
    </contour>
    <contour>
      <point x="524" y="806" type="line" identifier="By7dfMihfe"/>
      <point x="524" y="1588" type="line" identifier="1p5hKrurVy"/>
      <point x="2666" y="1588" type="line" identifier="Qby8aMtF2X"/>
      <point x="2666" y="1036" type="line"/>
      <point x="2447" y="806" type="line" identifier="xpxyvIzPoc"/>
    </contour>
  </outline>
</glyph>
<glyph name="C" format="2">
  <advance width="2835"/>
  <unicode hex="0043"/>
  <outline>
    <contour>
      <point x="290" y="0" type="line" identifier="7lPhzTnk2Z"/>
      <point x="2545" y="0" type="line" identifier="qJVLZGnkwh"/>
      <point x="2545" y="372" type="line" identifier="nDnDHzAMXL"/>
      <point x="2533" y="372" type="line" identifier="QX1V08aTu0"/>
      <point x="2533" y="12" type="line" identifier="Y750RHTvDj"/>
      <point x="302" y="12" type="line" identifier="L2LsGnXiZ2"/>
      <point x="302" y="1218" type="line" identifier="sUWsr03vF4"/>
      <point x="628" y="1588" type="line" identifier="dbOUe6OhxL"/>
      <point x="2530" y="1588" type="line" identifier="5BjRbcud80"/>
      <point x="2530" y="1035" type="line" identifier="fNVDqwQo2o"/>
      <point x="2543" y="1035" type="line" identifier="wLqQQx7QVN"/>
      <point x="2543" y="1600" type="line" identifier="9eJelv8BOw"/>
      <point x="620" y="1600" type="line" identifier="lfZev3ICaC"/>
      <point x="290" y="1222" type="line" identifier="V1EWIdPahq"/>
    </contour>
  </outline>
</glyph>
<glyph name="D" format="2">
  <advance width="3144"/>
  <unicode hex="0044"/>
  <outline>
    <contour>
      <point x="387" y="0" type="line" identifier="IF8msvcgce"/>
      <point x="2524" y="0" type="line" identifier="ydeACnPZN4"/>
      <point x="2854" y="373" type="line" identifier="wIy2omw5Da"/>
      <point x="2854" y="1600" type="line" identifier="gh4oopoKIn"/>
      <point x="387" y="1600" type="line" identifier="hTYdJwlqIh"/>
    </contour>
    <contour>
      <point x="400" y="12" type="line" identifier="YShvMHvurg"/>
      <point x="400" y="1588" type="line" identifier="OGdfzPVlic"/>
      <point x="2842" y="1588" type="line" identifier="4w8cXO1HlF"/>
      <point x="2842" y="377" type="line" identifier="5OFemp6E2Y"/>
      <point x="2516" y="12" type="line" identifier="DiLdvAK6bW"/>
    </contour>
  </outline>
</glyph>
<glyph name="E" format="2">
  <advance width="2886"/>
  <unicode hex="0045"/>
  <outline>
    <contour>
      <point x="387" y="0" type="line" identifier="fZynkQ4XHB"/>
      <point x="2498" y="0" type="line" identifier="FAQNpgUPxV"/>
      <point x="2498" y="498" type="line" identifier="gHI0YjrPxR"/>
      <point x="2486" y="498" type="line" identifier="gxCIuXb4el"/>
      <point x="2486" y="12" type="line" identifier="5cgTYOhATF"/>
      <point x="400" y="12" type="line" identifier="bWs42DaCgU"/>
      <point x="400" y="794" type="line" identifier="VtD2aADJmn"/>
      <point x="2282" y="794" type="line" identifier="PpbsFdHAnS"/>
      <point x="2282" y="806" type="line" identifier="8WuC5p8Ax5"/>
      <point x="400" y="806" type="line" identifier="m39IWn9ntA"/>
      <point x="400" y="1588" type="line" identifier="gQ21I4SHQg"/>
      <point x="2485" y="1588" type="line" identifier="eqNb2VTwYs"/>
      <point x="2485" y="1102" type="line" identifier="mLmcFoJA4m"/>
      <point x="2497" y="1102" type="line" identifier="e79n7CoPy1"/>
      <point x="2497" y="1600" type="line" identifier="qYRmo14Il5"/>
      <point x="387" y="1600" type="line" identifier="HmJIcnLWfC"/>
    </contour>
  </outline>
</glyph>
<glyph name="M" format="2">
  <advance width="3648"/>
  <unicode hex="004D"/>
  <outline>
    <contour>
      <point x="1634" y="150" type="line" identifier="0Dn4Xpf57M"/>
      <point x="677" y="1588" type="line"/>
      <point x="399" y="1588" type="line"/>
      <point x="399" y="0" type="line"/>
      <point x="387" y="0" type="line"/>
      <point x="387" y="1600" type="line"/>
      <point x="687" y="1600" type="line"/>
      <point x="1643" y="163" type="line"/>
      <point x="2005" y="163" type="line" identifier="9aKZPM0HPh"/>
      <point x="2961" y="1600" type="line"/>
      <point x="3261" y="1600" type="line"/>
      <point x="3261" y="0" type="line"/>
      <point x="3248" y="0" type="line"/>
      <point x="3248" y="1588" type="line"/>
      <point x="2971" y="1588" type="line"/>
      <point x="2014" y="150" type="line" identifier="spdoeeCFft"/>
    </contour>
  </outline>
</glyph>
<glyph name="O" format="2">
  <advance width="3173"/>
  <unicode hex="004F"/>
  <outline>
    <contour>
      <point x="2757" y="373" type="line" identifier="ob8US3C311"/>
      <point x="2757" y="1600" type="line" identifier="c9brEFyXXA"/>
      <point x="747" y="1600" type="line" identifier="a4Ql951bxG"/>
      <point x="416" y="1222" type="line" identifier="kbL68Qh2zr"/>
      <point x="416" y="0" type="line" identifier="U6WibAQAUl"/>
      <point x="2426" y="0" type="line" identifier="dfgNHTgBfR"/>
    </contour>
    <contour>
      <point x="2744" y="377" type="line" identifier="SnrsQD5TLy"/>
      <point x="2419" y="12" type="line" identifier="jjd5iRDXWT"/>
      <point x="429" y="12" type="line" identifier="YbQKHpAtYn"/>
      <point x="429" y="1218" type="line" identifier="vdfGLkskOQ"/>
      <point x="754" y="1588" type="line" identifier="qXlVxK5ShE"/>
      <point x="2744" y="1588" type="line" identifier="g70r2r6DwY"/>
    </contour>
  </outline>
</glyph>
<glyph name="P" format="2">
  <advance width="3030"/>
  <unicode hex="0050"/>
  <outline>
    <contour>
      <point x="387" y="0" type="line" identifier="EG08jqU5fb"/>
      <point x="400" y="0" type="line" identifier="osRzIFK2Cu"/>
      <point x="400" y="686" type="line" identifier="hIFVovVRwe"/>
      <point x="2643" y="686" type="line" identifier="Tt6D8zYZmU"/>
      <point x="2643" y="1600" type="line" identifier="6xW04auDFu"/>
      <point x="387" y="1600" type="line" identifier="eETO5GBD5v"/>
    </contour>
    <contour>
      <point x="400" y="698" type="line" identifier="PIBVN1PGv1"/>
      <point x="400" y="1588" type="line" identifier="IZIZQr2gYJ"/>
      <point x="2630" y="1588" type="line" identifier="2c4LCF1E1R"/>
      <point x="2630" y="698" type="line" identifier="1WCnzth1GX"/>
    </contour>
  </outline>
</glyph>
<glyph name="Q" format="2">
  <advance width="3144"/>
  <unicode hex="0051"/>
  <outline>
    <contour>
      <point x="2757" y="1600" type="line" identifier="c9brEFyXXA"/>
      <point x="620" y="1600" type="line" identifier="a4Ql951bxG"/>
      <point x="290" y="1222" type="line" identifier="kbL68Qh2zr"/>
      <point x="290" y="0" type="line" identifier="U6WibAQAUl"/>
      <point x="2757" y="0" type="line" identifier="dfgNHTgBfR"/>
    </contour>
    <contour>
      <point x="2744" y="12" type="line" identifier="jjd5iRDXWT"/>
      <point x="302" y="12" type="line" identifier="YbQKHpAtYn"/>
      <point x="302" y="1219" type="line" identifier="vdfGLkskOQ"/>
      <point x="628" y="1588" type="line" identifier="qXlVxK5ShE"/>
      <point x="2744" y="1588" type="line" identifier="g70r2r6DwY"/>
    </contour>
    <contour>
      <point x="1521" y="-307" type="line"/>
      <point x="1532" y="-307" type="line"/>
      <point x="1532" y="1" type="line"/>
      <point x="1521" y="1" type="line"/>
    </contour>
  </outline>
</glyph>
<glyph name="R" format="2">
  <advance width="2933"/>
  <unicode hex="0052"/>
  <outline>
    <contour>
      <point x="2579" y="0" type="line"/>
      <point x="2592" y="0" type="line"/>
      <point x="2592" y="613" type="line"/>
      <point x="2251" y="794" type="line"/>
      <point x="2236" y="793" type="line"/>
      <point x="2579" y="611" type="line"/>
    </contour>
    <contour>
      <point x="387" y="0" type="line" identifier="EG08jqU5fb"/>
      <point x="400" y="0" type="line" identifier="osRzIFK2Cu"/>
      <point x="400" y="792" type="line" identifier="hIFVovVRwe"/>
      <point x="2643" y="792" type="line" identifier="Tt6D8zYZmU"/>
      <point x="2643" y="1600" type="line" identifier="6xW04auDFu"/>
      <point x="387" y="1600" type="line" identifier="eETO5GBD5v"/>
    </contour>
    <contour>
      <point x="400" y="804" type="line" identifier="PIBVN1PGv1"/>
      <point x="400" y="1588" type="line" identifier="IZIZQr2gYJ"/>
      <point x="2631" y="1588" type="line" identifier="2c4LCF1E1R"/>
      <point x="2631" y="804" type="line" identifier="1WCnzth1GX"/>
    </contour>
  </outline>
</glyph>
<glyph name="S" format="2">
  <advance width="2727"/>
  <unicode hex="0053"/>
  <outline>
    <contour>
      <point x="292" y="0" type="line" identifier="09VlJ0BjUX"/>
      <point x="2107" y="0" type="line" identifier="EagWihqFM8"/>
      <point x="2437" y="370" type="line"/>
      <point x="2437" y="806" type="line" identifier="KfNuQA7eZe"/>
      <point x="302" y="806" type="line" identifier="At364YZFEy"/>
      <point x="302" y="1219" type="line"/>
      <point x="628" y="1588" type="line"/>
      <point x="2416" y="1588" type="line" identifier="3ZUkG35meB"/>
      <point x="2416" y="1158" type="line" identifier="DTOJhFIl15"/>
      <point x="2429" y="1158" type="line" identifier="9KDcrfQ5Ui"/>
      <point x="2429" y="1600" type="line" identifier="SaF9ojRFrW"/>
      <point x="621" y="1600" type="line"/>
      <point x="290" y="1222" type="line"/>
      <point x="290" y="794" type="line" identifier="3sQ8t8BZ6b"/>
      <point x="2425" y="794" type="line" identifier="yiV6OCBLHg"/>
      <point x="2425" y="373" type="line"/>
      <point x="2100" y="12" type="line" identifier="9kdl9SYsn8"/>
      <point x="304" y="12" type="line" identifier="yZDWuX8LLe"/>
      <point x="304" y="443" type="line" identifier="jYb9001DTm"/>
      <point x="292" y="443" type="line" identifier="ho4DrS0rdW"/>
    </contour>
  </outline>
</glyph>
<glyph name="W" format="2">
  <advance width="3645"/>
  <unicode hex="0057"/>
  <outline>
    <contour>
      <point x="1634" y="1383" type="line" identifier="0Dn4Xpf57M"/>
      <point x="676" y="11" type="line"/>
      <point x="399" y="11" type="line"/>
      <point x="399" y="1600" type="line"/>
      <point x="387" y="1600" type="line"/>
      <point x="387" y="0" type="line"/>
      <point x="684" y="0" type="line"/>
      <point x="1641" y="1370" type="line"/>
      <point x="2004" y="1370" type="line" identifier="9aKZPM0HPh"/>
      <point x="2962" y="0" type="line"/>
      <point x="3258" y="0" type="line"/>
      <point x="3258" y="1600" type="line"/>
      <point x="3246" y="1600" type="line"/>
      <point x="3246" y="11" type="line"/>
      <point x="2970" y="11" type="line"/>
      <point x="2011" y="1383" type="line" identifier="spdoeeCFft"/>
    </contour>
  </outline>
</glyph>
<glyph name="X" format="2">
  <advance width="2876"/>
  <unicode hex="0058"/>
  <outline>
    <contour>
      <point x="290" y="0" type="line"/>
      <point x="302" y="0" type="line"/>
      <point x="302" y="794" type="line"/>
      <point x="745" y="794" type="line"/>
      <point x="2125" y="794" type="line"/>
      <point x="2574" y="596" type="line"/>
      <point x="2574" y="0" type="line"/>
      <point x="2587" y="0" type="line"/>
      <point x="2587" y="601" type="line"/>
      <point x="2139" y="798" type="line"/>
      <point x="2139" y="799" type="line"/>
      <point x="2583" y="799" type="line"/>
      <point x="2583" y="1600" type="line"/>
      <point x="2570" y="1600" type="line"/>
      <point x="2570" y="806" type="line"/>
      <point x="2131" y="806" type="line"/>
      <point x="749" y="806" type="line"/>
      <point x="306" y="993" type="line"/>
      <point x="306" y="1600" type="line"/>
      <point x="293" y="1600" type="line"/>
      <point x="293" y="988" type="line"/>
      <point x="734" y="802" type="line"/>
      <point x="734" y="800" type="line"/>
      <point x="290" y="800" type="line"/>
    </contour>
  </outline>
</glyph>
<glyph name="Z" format="2">
  <advance width="3208"/>
  <unicode hex="005A"/>
  <outline>
    <contour>
      <point x="414" y="0" type="line"/>
      <point x="2795" y="0" type="line" identifier="pzdvPTirLJ"/>
      <point x="2795" y="527" type="line" identifier="91SxUS0iwG"/>
      <point x="2782" y="527" type="line"/>
      <point x="2782" y="12" type="line"/>
      <point x="426" y="12" type="line"/>
      <point x="426" y="358" type="line"/>
      <point x="2789" y="1374" type="line" identifier="yyb1NCCI5w"/>
      <point x="2789" y="1600" type="line" identifier="5FogYRSgkk"/>
      <point x="417" y="1600" type="line" identifier="svlFvrau4c"/>
      <point x="417" y="1105" type="line" identifier="LQ9fBsTy9K"/>
      <point x="429" y="1105" type="line"/>
      <point x="429" y="1588" type="line"/>
      <point x="2777" y="1588" type="line"/>
      <point x="2777" y="1378" type="line"/>
      <point x="414" y="365" type="line" identifier="teVKnpBcVb"/>
    </contour>
  </outline>
</glyph>
<glyph name="B.skinnymiddle" format="2">
  <advance width="3086"/>
  <outline>
    <contour>
      <point x="387" y="0" type="line" identifier="hvY9r8RmLr"/>
      <point x="2466" y="0" type="line" identifier="9QFpw7nfq7"/>
      <point x="2797" y="373" type="line"/>
      <point x="2797" y="805" type="line" identifier="543PerILpr"/>
      <point x="2333" y="805" type="line" identifier="zhomauHW30"/>
      <point x="2554" y="1036" type="line"/>
      <point x="2554" y="1600" type="line" identifier="FaP204GrdB"/>
      <point x="387" y="1600" type="line" identifier="JEev70GAj6"/>
    </contour>
    <contour>
      <point x="400" y="12" type="line" identifier="jaMSiLrCua"/>
      <point x="400" y="795" type="line" identifier="XSrxNd2axx"/>
      <point x="2784" y="795" type="line" identifier="lsRGatjQja"/>
      <point x="2784" y="377" type="line"/>
      <point x="2459" y="12" type="line" identifier="xhlDJ3CjD5"/>
    </contour>
    <contour>
      <point x="400" y="805" type="line" identifier="By7dfMihfe"/>
      <point x="400" y="1588" type="line" identifier="1p5hKrurVy"/>
      <point x="2542" y="1588" type="line" identifier="Qby8aMtF2X"/>
      <point x="2542" y="1036" type="line"/>
      <point x="2321" y="805" type="line" identifier="xpxyvIzPoc"/>
    </contour>
  </outline>
</glyph>
<glyph name="C.wide" format="2">
  <advance width="2960"/>
  <outline>
    <contour>
      <point x="239" y="0" type="line" identifier="7lPhzTnk2Z"/>
      <point x="2547" y="0" type="line" identifier="qJVLZGnkwh"/>
      <point x="2547" y="12" type="line" identifier="Y750RHTvDj"/>
      <point x="251" y="12" type="line" identifier="L2LsGnXiZ2"/>
      <point x="251" y="1167" type="line" identifier="sUWsr03vF4"/>
      <point x="581" y="1588" type="line" identifier="dbOUe6OhxL"/>
      <point x="2546" y="1588" type="line" identifier="5BjRbcud80"/>
      <point x="2546" y="1600" type="line" identifier="9eJelv8BOw"/>
      <point x="573" y="1600" type="line" identifier="lfZev3ICaC"/>
      <point x="239" y="1171" type="line" identifier="V1EWIdPahq"/>
    </contour>
  </outline>
</glyph>
<glyph name="E.wide" format="2">
  <advance width="3078"/>
  <outline>
    <contour>
      <point x="387" y="0" type="line" identifier="fZynkQ4XHB"/>
      <point x="2690" y="0" type="line" identifier="FAQNpgUPxV"/>
      <point x="2690" y="12" type="line" identifier="5cgTYOhATF"/>
      <point x="400" y="12" type="line" identifier="bWs42DaCgU"/>
      <point x="400" y="794" type="line" identifier="VtD2aADJmn"/>
      <point x="2495" y="794" type="line" identifier="PpbsFdHAnS"/>
      <point x="2495" y="806" type="line" identifier="8WuC5p8Ax5"/>
      <point x="400" y="806" type="line" identifier="m39IWn9ntA"/>
      <point x="400" y="1588" type="line" identifier="gQ21I4SHQg"/>
      <point x="2689" y="1588" type="line" identifier="eqNb2VTwYs"/>
      <point x="2689" y="1600" type="line" identifier="qYRmo14Il5"/>
      <point x="387" y="1600" type="line" identifier="HmJIcnLWfC"/>
    </contour>
  </outline>
</glyph>
<glyph name="G.wideskinny" format="2">
  <advance width="2896"/>
  <outline>
    <contour>
      <point x="290" y="0" type="line" identifier="7lPhzTnk2Z"/>
      <point x="2703" y="0" type="line" identifier="qJVLZGnkwh"/>
      <point x="2703" y="804" type="line" identifier="uek1NNj7De"/>
      <point x="1871" y="804" type="line" identifier="qcvimxjndX"/>
      <point x="1871" y="795" type="line" identifier="EARaY3Su65"/>
      <point x="2690" y="795" type="line" identifier="4m6dHLVhZq"/>
      <point x="2690" y="12" type="line" identifier="Y750RHTvDj"/>
      <point x="302" y="12" type="line" identifier="L2LsGnXiZ2"/>
      <point x="302" y="1168" type="line" identifier="sUWsr03vF4"/>
      <point x="631" y="1588" type="line" identifier="dbOUe6OhxL"/>
      <point x="2702" y="1588" type="line" identifier="5BjRbcud80"/>
      <point x="2702" y="1600" type="line" identifier="9eJelv8BOw"/>
      <point x="624" y="1600" type="line" identifier="lfZev3ICaC"/>
      <point x="290" y="1172" type="line" identifier="V1EWIdPahq"/>
    </contour>
  </outline>
</glyph>
<glyph name="L.wide" format="2">
  <advance width="2961"/>
  <outline>
    <contour>
      <point x="511" y="0" type="line" identifier="XkJNfQlnnt"/>
      <point x="2547" y="0" type="line" identifier="82EXZEgt46"/>
      <point x="2547" y="12" type="line" identifier="cqpSxwFiM3"/>
      <point x="524" y="12" type="line" identifier="MbxRZRd8vz"/>
      <point x="524" y="1600" type="line" identifier="lYiaKSKITt"/>
      <point x="511" y="1600" type="line" identifier="XFf4mMUzYo"/>
    </contour>
  </outline>
</glyph>
<glyph name="M.narrow" format="2">
  <advance width="3979"/>
  <outline>
    <contour>
      <point x="3455" y="0" type="line" smooth="yes" identifier="12Pyby1xY2"/>
      <point x="3468" y="0" type="line" smooth="yes" identifier="5LJg4ajoG6"/>
      <point x="3468" y="1600" type="line" smooth="yes" identifier="ZqTZqAY3uY"/>
      <point x="751" y="1600" type="line" smooth="yes" identifier="R4lklfJsHA"/>
      <point x="414" y="1221" type="line" smooth="yes" identifier="7g7f8Wu7K4"/>
      <point x="414" y="0" type="line" smooth="yes" identifier="RTOJW56qXy"/>
      <point x="426" y="0" type="line" identifier="JfSFAkWGZC"/>
      <point x="426" y="1216" type="line" smooth="yes" identifier="WWvGwSpq0g"/>
      <point x="760" y="1588" type="line" smooth="yes" identifier="oee4nqI8Wl"/>
      <point x="1936" y="1588" type="line" identifier="Ljn2lpvpG8"/>
      <point x="1936" y="1" type="line" smooth="yes"/>
      <point x="1948" y="1" type="line"/>
      <point x="1948" y="1588" type="line" identifier="GlWB6PG54Z"/>
      <point x="3455" y="1588" type="line" identifier="iqeTRv7HXg"/>
    </contour>
  </outline>
</glyph>
<glyph name="N.wide" format="2">
  <advance width="3002"/>
  <outline>
    <contour>
      <point x="249" y="0" type="line" identifier="CkwYPPvJLv"/>
      <point x="262" y="0" type="line" identifier="oHTJsN7drZ"/>
      <point x="262" y="1587" type="line" identifier="wfBbYd10Pm"/>
      <point x="586" y="1587" type="line" identifier="MEnBDHq6zU"/>
      <point x="2353" y="0" type="line" identifier="3Nbopwznvn"/>
      <point x="2695" y="0" type="line" identifier="uKfuudIUvA"/>
      <point x="2695" y="1600" type="line" identifier="XRdLFXiM4t"/>
      <point x="2683" y="1600" type="line" identifier="MUSJPjCIXg"/>
      <point x="2683" y="14" type="line" identifier="VILP20cFmq"/>
      <point x="2356" y="14" type="line" identifier="z5b04GDwRN"/>
      <point x="589" y="1600" type="line" identifier="LL64NQ6WBE"/>
      <point x="249" y="1600" type="line" identifier="dzUaaP1sjt"/>
    </contour>
  </outline>
</glyph>
<glyph name="P.wide" format="2">
  <advance width="2618"/>
  <outline>
    <contour>
      <point x="203" y="0" type="line" identifier="EG08jqU5fb"/>
      <point x="216" y="0" type="line" identifier="osRzIFK2Cu"/>
      <point x="216" y="654" type="line" identifier="hIFVovVRwe"/>
      <point x="2461" y="654" type="line" identifier="Tt6D8zYZmU"/>
      <point x="2461" y="1600" type="line" identifier="6xW04auDFu"/>
      <point x="203" y="1600" type="line" identifier="eETO5GBD5v"/>
    </contour>
    <contour>
      <point x="216" y="667" type="line" identifier="PIBVN1PGv1"/>
      <point x="216" y="1588" type="line" identifier="IZIZQr2gYJ"/>
      <point x="2448" y="1588" type="line" identifier="2c4LCF1E1R"/>
      <point x="2448" y="667" type="line" identifier="1WCnzth1GX"/>
    </contour>
  </outline>
</glyph>
<glyph name="R.wide" format="2">
  <advance width="3015"/>
  <outline>
    <contour>
      <point x="2703" y="0" type="line"/>
      <point x="2716" y="0" type="line"/>
      <point x="2373" y="796" type="line"/>
      <point x="2360" y="796" type="line"/>
    </contour>
    <contour>
      <point x="511" y="0" type="line" identifier="EG08jqU5fb"/>
      <point x="524" y="0" type="line" identifier="osRzIFK2Cu"/>
      <point x="524" y="794" type="line" identifier="hIFVovVRwe"/>
      <point x="2767" y="794" type="line" identifier="Tt6D8zYZmU"/>
      <point x="2767" y="1600" type="line" identifier="6xW04auDFu"/>
      <point x="511" y="1600" type="line" identifier="eETO5GBD5v"/>
    </contour>
    <contour>
      <point x="524" y="807" type="line" identifier="PIBVN1PGv1"/>
      <point x="524" y="1588" type="line" identifier="IZIZQr2gYJ"/>
      <point x="2754" y="1588" type="line" identifier="2c4LCF1E1R"/>
      <point x="2754" y="807" type="line" identifier="1WCnzth1GX"/>
    </contour>
  </outline>
</glyph>
<glyph name="S.wide" format="2">
  <advance width="3188"/>
  <outline>
    <contour>
      <point x="419" y="0" type="line" identifier="09VlJ0BjUX"/>
      <point x="2441" y="0" type="line" identifier="EagWihqFM8"/>
      <point x="2771" y="370" type="line"/>
      <point x="2771" y="806" type="line" identifier="KfNuQA7eZe"/>
      <point x="429" y="806" type="line" identifier="At364YZFEy"/>
      <point x="429" y="1219" type="line"/>
      <point x="755" y="1588" type="line"/>
      <point x="2761" y="1588" type="line" identifier="3ZUkG35meB"/>
      <point x="2761" y="1600" type="line" identifier="SaF9ojRFrW"/>
      <point x="748" y="1600" type="line"/>
      <point x="417" y="1222" type="line"/>
      <point x="417" y="794" type="line" identifier="3sQ8t8BZ6b"/>
      <point x="2760" y="794" type="line" identifier="yiV6OCBLHg"/>
      <point x="2760" y="373" type="line"/>
      <point x="2435" y="12" type="line" identifier="9kdl9SYsn8"/>
      <point x="419" y="12" type="line" identifier="yZDWuX8LLe"/>
    </contour>
  </outline>
</glyph>
<glyph name="S.wideskinny" format="2">
  <advance width="2870"/>
  <outline>
    <contour>
      <point x="292" y="0" type="line" identifier="09VlJ0BjUX"/>
      <point x="2251" y="0" type="line" identifier="EagWihqFM8"/>
      <point x="2580" y="370" type="line"/>
      <point x="2580" y="805" type="line" identifier="KfNuQA7eZe"/>
      <point x="301" y="805" type="line" identifier="At364YZFEy"/>
      <point x="301" y="1218" type="line"/>
      <point x="627" y="1588" type="line"/>
      <point x="2570" y="1588" type="line" identifier="3ZUkG35meB"/>
      <point x="2570" y="1600" type="line" identifier="SaF9ojRFrW"/>
      <point x="620" y="1600" type="line"/>
      <point x="290" y="1222" type="line"/>
      <point x="290" y="795" type="line" identifier="3sQ8t8BZ6b"/>
      <point x="2569" y="795" type="line" identifier="yiV6OCBLHg"/>
      <point x="2569" y="374" type="line"/>
      <point x="2244" y="12" type="line" identifier="9kdl9SYsn8"/>
      <point x="292" y="12" type="line" identifier="yZDWuX8LLe"/>
    </contour>
  </outline>
</glyph>
<glyph name="U.alt" format="2">
  <advance width="2816"/>
  <outline>
    <contour>
      <point x="2600" y="1600" type="line" smooth="yes"/>
      <point x="2600" y="12" type="line"/>
      <point x="214" y="12" type="line" smooth="yes"/>
      <point x="214" y="1600" type="line"/>
      <point x="201" y="1600" type="line" smooth="yes"/>
      <point x="201" y="0" type="line" smooth="yes"/>
      <point x="2613" y="0" type="line" smooth="yes"/>
      <point x="2613" y="1600" type="line" smooth="yes"/>
    </contour>
  </outline>
</glyph>
<glyph name="Z.wide" format="2">
  <advance width="2862"/>
  <outline>
    <contour>
      <point x="300" y="0" type="line"/>
      <point x="2573" y="0" type="line" identifier="pzdvPTirLJ"/>
      <point x="2573" y="12" type="line"/>
      <point x="314" y="12" type="line"/>
      <point x="314" y="383" type="line"/>
      <point x="2544" y="1250" type="line" identifier="yyb1NCCI5w"/>
      <point x="2544" y="1600" type="line" identifier="5FogYRSgkk"/>
      <point x="291" y="1600" type="line" identifier="svlFvrau4c"/>
      <point x="291" y="1588" type="line"/>
      <point x="2530" y="1588" type="line"/>
      <point x="2530" y="1254" type="line"/>
      <point x="300" y="390" type="line" identifier="teVKnpBcVb"/>
    </contour>
  </outline>
</glyph>
<glyph name="eight.skinnymiddle" format="2">
  <advance width="3255"/>
  <outline>
    <contour>
      <point x="2571" y="795" type="line"/>
      <point x="2828" y="597" type="line"/>
      <point x="2828" y="12" type="line"/>
      <point x="426" y="12" type="line"/>
      <point x="426" y="596" type="line"/>
      <point x="684" y="795" type="line"/>
    </contour>
    <contour>
      <point x="2584" y="799" type="line"/>
      <point x="2584" y="801" type="line"/>
      <point x="2838" y="989" type="line"/>
      <point x="2838" y="1600" type="line"/>
      <point x="417" y="1600" type="line"/>
      <point x="417" y="989" type="line"/>
      <point x="670" y="801" type="line"/>
      <point x="670" y="799" type="line"/>
      <point x="414" y="601" type="line"/>
      <point x="414" y="0" type="line"/>
      <point x="2841" y="0" type="line"/>
      <point x="2841" y="601" type="line"/>
    </contour>
    <contour>
      <point x="684" y="805" type="line"/>
      <point x="429" y="993" type="line"/>
      <point x="429" y="1588" type="line"/>
      <point x="2825" y="1588" type="line"/>
      <point x="2825" y="993" type="line"/>
      <point x="2571" y="805" type="line"/>
    </contour>
  </outline>
</glyph>
<glyph name="five.wide" format="2">
  <advance width="2937"/>
  <outline>
    <contour>
      <point x="291" y="0" type="line" identifier="09VlJ0BjUX"/>
      <point x="2648" y="0" type="line" identifier="EagWihqFM8"/>
      <point x="2648" y="806" type="line" identifier="KfNuQA7eZe"/>
      <point x="302" y="806" type="line" identifier="At364YZFEy"/>
      <point x="302" y="1588" type="line" identifier="BcuLfvaQKC"/>
      <point x="2647" y="1588" type="line" identifier="3ZUkG35meB"/>
      <point x="2647" y="1600" type="line" identifier="SaF9ojRFrW"/>
      <point x="290" y="1600" type="line" identifier="F4sQEYelA8"/>
      <point x="290" y="794" type="line" identifier="3sQ8t8BZ6b"/>
      <point x="2635" y="794" type="line" identifier="yiV6OCBLHg"/>
      <point x="2635" y="12" type="line" identifier="9kdl9SYsn8"/>
      <point x="291" y="12" type="line" identifier="yZDWuX8LLe"/>
    </contour>
  </outline>
</glyph>
<glyph name="nine.wide" format="2">
  <advance width="2918"/>
  <outline>
    <contour>
      <point x="271" y="0" type="line" identifier="oGvEEuxnYv"/>
      <point x="2615" y="0" type="line" identifier="xR3pEHbMJx"/>
      <point x="2615" y="1600" type="line" identifier="uiw6aBUf4P"/>
      <point x="271" y="1600" type="line" identifier="jtYkxiUX6G"/>
      <point x="271" y="794" type="line" identifier="2G5L37c87I"/>
      <point x="2602" y="794" type="line"/>
      <point x="2602" y="12" type="line"/>
      <point x="271" y="12" type="line"/>
    </contour>
    <contour>
      <point x="283" y="806" type="line"/>
      <point x="283" y="1588" type="line"/>
      <point x="2602" y="1588" type="line"/>
      <point x="2602" y="806" type="line"/>
    </contour>
  </outline>
</glyph>
<glyph name="one.narrow" format="2">
  <advance width="1896"/>
  <outline>
    <contour>
      <point x="1508" y="0" type="line" identifier="5nmxQXofSG"/>
      <point x="1508" y="1600" type="line" identifier="4rjIeWbSbx"/>
      <point x="290" y="1600" type="line"/>
      <point x="290" y="1588" type="line"/>
      <point x="1496" y="1588" type="line"/>
      <point x="1496" y="0" type="line"/>
    </contour>
  </outline>
</glyph>
<glyph name="seven.alt" format="2">
  <advance width="2617"/>
  <outline>
    <contour>
      <point x="241" y="1600" type="line" identifier="jiO9eX9U07"/>
      <point x="2303" y="1600" type="line" identifier="wgpFs1yguc"/>
      <point x="2303" y="0" type="line" identifier="d5Di3vNzni"/>
      <point x="2290" y="0" type="line" identifier="46RrD1WET2"/>
      <point x="2290" y="1588" type="line" identifier="zFXsE8BUYG"/>
      <point x="254" y="1588" type="line" identifier="NQmE31PUns"/>
      <point x="253" y="940" type="line" identifier="qiXxY6YhCq"/>
      <point x="241" y="940" type="line" identifier="7exNZv1XSc"/>
    </contour>
  </outline>
</glyph>
<glyph name="six.wide" format="2">
  <advance width="2868"/>
  <outline>
    <contour>
      <point x="235" y="0" type="line" identifier="uiw6aBUf4P"/>
      <point x="2611" y="0" type="line" identifier="jtYkxiUX6G"/>
      <point x="2611" y="805" type="line" identifier="2G5L37c87I"/>
      <point x="247" y="805" type="line"/>
      <point x="247" y="1221" type="line"/>
      <point x="574" y="1588" type="line"/>
      <point x="2610" y="1588" type="line"/>
      <point x="2610" y="1600" type="line" identifier="oGvEEuxnYv"/>
      <point x="566" y="1600" type="line" identifier="xR3pEHbMJx"/>
      <point x="235" y="1225" type="line" identifier="KnMArb0tv8"/>
    </contour>
    <contour>
      <point x="2598" y="794" type="line"/>
      <point x="2598" y="12" type="line"/>
      <point x="247" y="12" type="line"/>
      <point x="247" y="794" type="line"/>
    </contour>
  </outline>
</glyph>
<glyph name="three.wide" format="2">
  <advance width="3340"/>
  <outline>
    <contour>
      <point x="414" y="0" type="line" identifier="O9abUc1nmN"/>
      <point x="2828" y="0" type="line" identifier="kMJYMTfXCq"/>
      <point x="2828" y="809" type="line" identifier="su2XmdS8e8"/>
      <point x="2593" y="809" type="line" identifier="JQaOzDQqlF"/>
      <point x="2593" y="1600" type="line" identifier="xg8x2Ki40p"/>
      <point x="421" y="1600" type="line" identifier="pE1XSRiy68"/>
      <point x="421" y="1588" type="line" identifier="7ogBYufWpl"/>
      <point x="2580" y="1588" type="line" identifier="RHLvSX2Jv6"/>
      <point x="2580" y="809" type="line" identifier="iic1IBkDqp"/>
      <point x="885" y="809" type="line" identifier="lRLJEhXMlO"/>
      <point x="885" y="797" type="line" identifier="8aKgEELrVU"/>
      <point x="2816" y="797" type="line" identifier="Dm8zjmbhNr"/>
      <point x="2816" y="12" type="line" identifier="xv9CFHiFgB"/>
      <point x="414" y="12" type="line" identifier="YajKQV3MHP"/>
    </contour>
  </outline>
</glyph>
<glyph name="two.wide" format="2">
  <advance width="2885"/>
  <outline>
    <contour>
      <point x="316" y="0" type="line"/>
      <point x="2584" y="0" type="line" identifier="pzdvPTirLJ"/>
      <point x="2584" y="12" type="line"/>
      <point x="328" y="12" type="line"/>
      <point x="328" y="794" type="line"/>
      <point x="2561" y="794" type="line" identifier="yyb1NCCI5w"/>
      <point x="2561" y="1600" type="line" identifier="5FogYRSgkk"/>
      <point x="319" y="1600" type="line" identifier="svlFvrau4c"/>
      <point x="319" y="1588" type="line"/>
      <point x="2548" y="1588" type="line"/>
      <point x="2548" y="806" type="line"/>
      <point x="316" y="806" type="line" identifier="teVKnpBcVb"/>
    </contour>
  </outline>
</glyph>
<glyph name="two.wideskinny" format="2">
  <advance width="2885"/>
  <outline>
    <contour>
      <point x="316" y="0" type="line"/>
      <point x="2584" y="0" type="line" identifier="pzdvPTirLJ"/>
      <point x="2584" y="12" type="line"/>
      <point x="328" y="12" type="line"/>
      <point x="328" y="795" type="line"/>
      <point x="2561" y="795" type="line" identifier="yyb1NCCI5w"/>
      <point x="2561" y="1600" type="line" identifier="5FogYRSgkk"/>
      <point x="319" y="1600" type="line" identifier="svlFvrau4c"/>
      <point x="319" y="1588" type="line"/>
      <point x="2548" y="1588" type="line"/>
      <point x="2548" y="805" type="line"/>
      <point x="316" y="805" type="line" identifier="teVKnpBcVb"/>
    </contour>
  </outline>
</glyph>
